<svg width="221" height="86" viewBox="0 0 221 86" fill="none" xmlns="http://www.w3.org/2000/svg">
<path d="M35.0852 18.8182C35.0852 22.6534 34.3928 25.9678 33.0078 28.7614C31.6229 31.5549 29.723 33.7093 27.3082 35.2244C24.8935 36.7396 22.1354 37.4972 19.0341 37.4972C15.9328 37.4972 13.1747 36.7396 10.7599 35.2244C8.34517 33.7093 6.44531 31.5549 5.06037 28.7614C3.67543 25.9678 2.98295 22.6534 2.98295 18.8182C2.98295 14.983 3.67543 11.6686 5.06037 8.875C6.44531 6.08144 8.34517 3.92708 10.7599 2.41193C13.1747 0.896779 15.9328 0.139203 19.0341 0.139203C22.1354 0.139203 24.8935 0.896779 27.3082 2.41193C29.723 3.92708 31.6229 6.08144 33.0078 8.875C34.3928 11.6686 35.0852 14.983 35.0852 18.8182ZM30.8239 18.8182C30.8239 15.6695 30.2971 13.0121 29.2436 10.8459C28.2019 8.67969 26.7874 7.04025 25 5.92756C23.2244 4.81487 21.2358 4.25852 19.0341 4.25852C16.8324 4.25852 14.8378 4.81487 13.0504 5.92756C11.2749 7.04025 9.86032 8.67969 8.80682 10.8459C7.76515 13.0121 7.24432 15.6695 7.24432 18.8182C7.24432 21.9669 7.76515 24.6243 8.80682 26.7905C9.86032 28.9567 11.2749 30.5961 13.0504 31.7088C14.8378 32.8215 16.8324 33.3778 19.0341 33.3778C21.2358 33.3778 23.2244 32.8215 25 31.7088C26.7874 30.5961 28.2019 28.9567 29.2436 26.7905C30.2971 24.6243 30.8239 21.9669 30.8239 18.8182Z" fill="#FF9F1C"/>
<path d="M46.1115 0.636363V37H41.9212V0.636363H46.1115ZM53.7864 37V9.72727H57.9767V37H53.7864ZM55.9171 5.18182C55.1003 5.18182 54.396 4.90365 53.8042 4.3473C53.2241 3.79096 52.9341 3.12216 52.9341 2.34091C52.9341 1.55966 53.2241 0.890861 53.8042 0.334516C54.396 -0.221828 55.1003 -0.5 55.9171 -0.5C56.7338 -0.5 57.4322 -0.221828 58.0123 0.334516C58.6041 0.890861 58.9 1.55966 58.9 2.34091C58.9 3.12216 58.6041 3.79096 58.0123 4.3473C57.4322 4.90365 56.7338 5.18182 55.9171 5.18182ZM65.6516 37V9.72727H69.6999V13.9886H70.055C70.6232 12.5327 71.5406 11.4022 72.8072 10.5973C74.0737 9.78054 75.5948 9.37216 77.3704 9.37216C79.1696 9.37216 80.667 9.78054 81.8626 10.5973C83.07 11.4022 84.011 12.5327 84.6857 13.9886H84.9698C85.6682 12.58 86.7158 11.4614 88.1126 10.6328C89.5094 9.79238 91.1843 9.37216 93.1374 9.37216C95.5759 9.37216 97.5704 10.1357 99.1211 11.6626C100.672 13.1778 101.447 15.5393 101.447 18.7472V37H97.2567V18.7472C97.2567 16.7348 96.7063 15.2966 95.6055 14.4325C94.5046 13.5684 93.2085 13.1364 91.717 13.1364C89.7994 13.1364 88.3138 13.7164 87.2603 14.8764C86.2068 16.0246 85.68 17.4806 85.68 19.2443V37H81.4187V18.321C81.4187 16.7704 80.9156 15.5215 79.9094 14.5746C78.9033 13.6158 77.6071 13.1364 76.021 13.1364C74.9319 13.1364 73.9139 13.4264 72.967 14.0064C72.0318 14.5864 71.2743 15.3913 70.6942 16.4212C70.1261 17.4392 69.842 18.617 69.842 19.9545V37H65.6516Z" fill="black"/>
<path d="M35.0852 67.8182C35.0852 71.6534 34.3928 74.9678 33.0078 77.7614C31.6229 80.5549 29.723 82.7093 27.3082 84.2244C24.8935 85.7396 22.1354 86.4972 19.0341 86.4972C15.9328 86.4972 13.1747 85.7396 10.7599 84.2244C8.34517 82.7093 6.44531 80.5549 5.06037 77.7614C3.67543 74.9678 2.98295 71.6534 2.98295 67.8182C2.98295 63.983 3.67543 60.6686 5.06037 57.875C6.44531 55.0814 8.34517 52.9271 10.7599 51.4119C13.1747 49.8968 15.9328 49.1392 19.0341 49.1392C22.1354 49.1392 24.8935 49.8968 27.3082 51.4119C29.723 52.9271 31.6229 55.0814 33.0078 57.875C34.3928 60.6686 35.0852 63.983 35.0852 67.8182ZM30.8239 67.8182C30.8239 64.6695 30.2971 62.0121 29.2436 59.8459C28.2019 57.6797 26.7874 56.0402 25 54.9276C23.2244 53.8149 21.2358 53.2585 19.0341 53.2585C16.8324 53.2585 14.8378 53.8149 13.0504 54.9276C11.2749 56.0402 9.86032 57.6797 8.80682 59.8459C7.76515 62.0121 7.24432 64.6695 7.24432 67.8182C7.24432 70.9669 7.76515 73.6243 8.80682 75.7905C9.86032 77.9567 11.2749 79.5961 13.0504 80.7088C14.8378 81.8215 16.8324 82.3778 19.0341 82.3778C21.2358 82.3778 23.2244 81.8215 25 80.7088C26.7874 79.5961 28.2019 77.9567 29.2436 75.7905C30.2971 73.6243 30.8239 70.9669 30.8239 67.8182Z" fill="#FF9F1C" fill-opacity="0.5"/>
<path d="M46.1115 49.6364V86H41.9212V49.6364H46.1115ZM53.7864 86V58.7273H57.9767V86H53.7864ZM55.9171 54.1818C55.1003 54.1818 54.396 53.9036 53.8042 53.3473C53.2241 52.791 52.9341 52.1222 52.9341 51.3409C52.9341 50.5597 53.2241 49.8909 53.8042 49.3345C54.396 48.7782 55.1003 48.5 55.9171 48.5C56.7338 48.5 57.4322 48.7782 58.0123 49.3345C58.6041 49.8909 58.9 50.5597 58.9 51.3409C58.9 52.1222 58.6041 52.791 58.0123 53.3473C57.4322 53.9036 56.7338 54.1818 55.9171 54.1818ZM65.6516 86V58.7273H69.6999V62.9886H70.055C70.6232 61.5327 71.5406 60.4022 72.8072 59.5973C74.0737 58.7805 75.5948 58.3722 77.3704 58.3722C79.1696 58.3722 80.667 58.7805 81.8626 59.5973C83.07 60.4022 84.011 61.5327 84.6857 62.9886H84.9698C85.6682 61.58 86.7158 60.4614 88.1126 59.6328C89.5094 58.7924 91.1843 58.3722 93.1374 58.3722C95.5759 58.3722 97.5704 59.1357 99.1211 60.6626C100.672 62.1778 101.447 64.5393 101.447 67.7472V86H97.2567V67.7472C97.2567 65.7348 96.7063 64.2966 95.6055 63.4325C94.5046 62.5684 93.2085 62.1364 91.717 62.1364C89.7994 62.1364 88.3138 62.7164 87.2603 63.8764C86.2068 65.0246 85.68 66.4806 85.68 68.2443V86H81.4187V67.321C81.4187 65.7704 80.9156 64.5215 79.9094 63.5746C78.9033 62.6158 77.6071 62.1364 76.021 62.1364C74.9319 62.1364 73.9139 62.4264 72.967 63.0064C72.0318 63.5864 71.2743 64.3913 70.6942 65.4212C70.1261 66.4392 69.842 67.617 69.842 68.9545V86H65.6516Z" fill="black" fill-opacity="0.5"/>
<path d="M110.403 86V49.6364H122.69C125.543 49.6364 127.875 50.1513 129.686 51.1811C131.509 52.1991 132.858 53.5781 133.734 55.3182C134.61 57.0582 135.048 58.9995 135.048 61.142C135.048 63.2846 134.61 65.2318 133.734 66.9837C132.87 68.7356 131.533 70.1323 129.722 71.174C127.911 72.2038 125.59 72.7188 122.761 72.7188H113.955V68.8125H122.619C124.572 68.8125 126.141 68.4751 127.325 67.8004C128.508 67.1257 129.366 66.2143 129.899 65.0661C130.444 63.906 130.716 62.598 130.716 61.142C130.716 59.6861 130.444 58.384 129.899 57.2358C129.366 56.0876 128.502 55.188 127.307 54.5369C126.111 53.8741 124.525 53.5426 122.548 53.5426H114.807V86H110.403Z" fill="#FF9F1C"/>
<path d="M141.574 86V58.7273H145.764V86H141.574ZM143.704 54.1818C142.887 54.1818 142.183 53.9036 141.591 53.3473C141.011 52.791 140.721 52.1222 140.721 51.3409C140.721 50.5597 141.011 49.8909 141.591 49.3345C142.183 48.7782 142.887 48.5 143.704 48.5C144.521 48.5 145.219 48.7782 145.799 49.3345C146.391 49.8909 146.687 50.5597 146.687 51.3409C146.687 52.1222 146.391 52.791 145.799 53.3473C145.219 53.9036 144.521 54.1818 143.704 54.1818ZM161.464 86.6392C159.736 86.6392 158.168 86.3137 156.759 85.6626C155.35 84.9998 154.232 84.0469 153.403 82.804C152.575 81.5492 152.16 80.0341 152.16 78.2585C152.16 76.696 152.468 75.4295 153.084 74.4588C153.699 73.4763 154.522 72.7069 155.552 72.1506C156.581 71.5942 157.718 71.1799 158.961 70.9077C160.215 70.6236 161.476 70.3987 162.743 70.233C164.4 70.0199 165.743 69.8601 166.773 69.7536C167.815 69.6352 168.573 69.4399 169.046 69.1676C169.531 68.8954 169.774 68.4219 169.774 67.7472V67.6051C169.774 65.8532 169.295 64.492 168.336 63.5213C167.389 62.5507 165.951 62.0653 164.021 62.0653C162.021 62.0653 160.452 62.5033 159.316 63.3793C158.18 64.2552 157.381 65.1903 156.919 66.1847L152.942 64.7642C153.652 63.107 154.599 61.8168 155.782 60.8935C156.978 59.9583 158.28 59.3073 159.689 58.9403C161.109 58.5616 162.506 58.3722 163.879 58.3722C164.755 58.3722 165.761 58.4787 166.898 58.6918C168.046 58.893 169.153 59.3132 170.218 59.9524C171.295 60.5916 172.189 61.5563 172.899 62.8466C173.609 64.1368 173.964 65.8651 173.964 68.0312V86H169.774V82.3068H169.561C169.277 82.8987 168.803 83.532 168.14 84.2067C167.478 84.8814 166.596 85.4555 165.495 85.929C164.394 86.4025 163.05 86.6392 161.464 86.6392ZM162.104 82.875C163.761 82.875 165.157 82.5495 166.294 81.8984C167.442 81.2474 168.306 80.407 168.886 79.3771C169.478 78.3473 169.774 77.2642 169.774 76.1278V72.2926C169.596 72.5057 169.206 72.701 168.602 72.8786C168.01 73.0443 167.324 73.1922 166.542 73.3224C165.773 73.4408 165.021 73.5473 164.287 73.642C163.565 73.7249 162.979 73.7959 162.53 73.8551C161.441 73.9972 160.423 74.228 159.476 74.5476C158.541 74.8554 157.783 75.3229 157.203 75.9503C156.635 76.5658 156.351 77.4062 156.351 78.4716C156.351 79.9276 156.889 81.0284 157.966 81.7741C159.055 82.508 160.434 82.875 162.104 82.875ZM191.911 86.5682C189.638 86.5682 187.632 85.9941 185.892 84.8459C184.152 83.6858 182.79 82.0523 181.808 79.9453C180.825 77.8265 180.334 75.3229 180.334 72.4347C180.334 69.5701 180.825 67.0843 181.808 64.9773C182.79 62.8703 184.158 61.2427 185.909 60.0945C187.661 58.9463 189.685 58.3722 191.982 58.3722C193.757 58.3722 195.16 58.6681 196.19 59.2599C197.232 59.84 198.025 60.5028 198.569 61.2486C199.126 61.9825 199.558 62.5862 199.865 63.0597H200.221V49.6364H204.411V86H200.363V81.8097H199.865C199.558 82.3068 199.12 82.9342 198.551 83.6918C197.983 84.4375 197.172 85.1063 196.119 85.6982C195.065 86.2782 193.663 86.5682 191.911 86.5682ZM192.479 82.804C194.16 82.804 195.58 82.366 196.74 81.4901C197.9 80.6023 198.782 79.3771 199.386 77.8146C199.99 76.2403 200.292 74.4233 200.292 72.3636C200.292 70.3277 199.996 68.5462 199.404 67.0192C198.812 65.4804 197.936 64.2848 196.776 63.4325C195.616 62.5684 194.184 62.1364 192.479 62.1364C190.703 62.1364 189.224 62.5921 188.04 63.5036C186.868 64.4032 185.986 65.6283 185.395 67.179C184.815 68.7178 184.525 70.446 184.525 72.3636C184.525 74.3049 184.82 76.0687 185.412 77.6548C186.016 79.2292 186.904 80.4839 188.076 81.419C189.259 82.3423 190.727 82.804 192.479 82.804ZM212.667 86V58.7273H216.858V86H212.667ZM214.798 54.1818C213.981 54.1818 213.277 53.9036 212.685 53.3473C212.105 52.791 211.815 52.1222 211.815 51.3409C211.815 50.5597 212.105 49.8909 212.685 49.3345C213.277 48.7782 213.981 48.5 214.798 48.5C215.615 48.5 216.313 48.7782 216.893 49.3345C217.485 49.8909 217.781 50.5597 217.781 51.3409C217.781 52.1222 217.485 52.791 216.893 53.3473C216.313 53.9036 215.615 54.1818 214.798 54.1818Z" fill="black"/>
<path d="M110.403 37V0.636363H122.69C125.543 0.636363 127.875 1.15128 129.686 2.18111C131.509 3.1991 132.858 4.57812 133.734 6.31818C134.61 8.05824 135.048 9.99953 135.048 12.142C135.048 14.2846 134.61 16.2318 133.734 17.9837C132.87 19.7356 131.533 21.1323 129.722 22.174C127.911 23.2038 125.59 23.7188 122.761 23.7188H113.955V19.8125H122.619C124.572 19.8125 126.141 19.4751 127.325 18.8004C128.508 18.1257 129.366 17.2143 129.899 16.0661C130.444 14.906 130.716 13.598 130.716 12.142C130.716 10.6861 130.444 9.384 129.899 8.23579C129.366 7.08759 128.502 6.18797 127.307 5.53693C126.111 4.87405 124.525 4.54261 122.548 4.54261H114.807V37H110.403Z" fill="#FF9F1C" fill-opacity="0.5"/>
<path d="M141.574 37V9.72727H145.764V37H141.574ZM143.704 5.18182C142.887 5.18182 142.183 4.90365 141.591 4.3473C141.011 3.79096 140.721 3.12216 140.721 2.34091C140.721 1.55966 141.011 0.890861 141.591 0.334516C142.183 -0.221828 142.887 -0.5 143.704 -0.5C144.521 -0.5 145.219 -0.221828 145.799 0.334516C146.391 0.890861 146.687 1.55966 146.687 2.34091C146.687 3.12216 146.391 3.79096 145.799 4.3473C145.219 4.90365 144.521 5.18182 143.704 5.18182ZM161.464 37.6392C159.736 37.6392 158.168 37.3137 156.759 36.6626C155.35 35.9998 154.232 35.0469 153.403 33.804C152.575 32.5492 152.16 31.0341 152.16 29.2585C152.16 27.696 152.468 26.4295 153.084 25.4588C153.699 24.4763 154.522 23.7069 155.552 23.1506C156.581 22.5942 157.718 22.1799 158.961 21.9077C160.215 21.6236 161.476 21.3987 162.743 21.233C164.4 21.0199 165.743 20.8601 166.773 20.7536C167.815 20.6352 168.573 20.4399 169.046 20.1676C169.531 19.8954 169.774 19.4219 169.774 18.7472V18.6051C169.774 16.8532 169.295 15.492 168.336 14.5213C167.389 13.5507 165.951 13.0653 164.021 13.0653C162.021 13.0653 160.452 13.5033 159.316 14.3793C158.18 15.2552 157.381 16.1903 156.919 17.1847L152.942 15.7642C153.652 14.107 154.599 12.8168 155.782 11.8935C156.978 10.9583 158.28 10.3073 159.689 9.94034C161.109 9.56155 162.506 9.37216 163.879 9.37216C164.755 9.37216 165.761 9.47869 166.898 9.69176C168.046 9.89299 169.153 10.3132 170.218 10.9524C171.295 11.5916 172.189 12.5563 172.899 13.8466C173.609 15.1368 173.964 16.8651 173.964 19.0312V37H169.774V33.3068H169.561C169.277 33.8987 168.803 34.532 168.14 35.2067C167.478 35.8814 166.596 36.4555 165.495 36.929C164.394 37.4025 163.05 37.6392 161.464 37.6392ZM162.104 33.875C163.761 33.875 165.157 33.5495 166.294 32.8984C167.442 32.2474 168.306 31.407 168.886 30.3771C169.478 29.3473 169.774 28.2642 169.774 27.1278V23.2926C169.596 23.5057 169.206 23.701 168.602 23.8786C168.01 24.0443 167.324 24.1922 166.542 24.3224C165.773 24.4408 165.021 24.5473 164.287 24.642C163.565 24.7249 162.979 24.7959 162.53 24.8551C161.441 24.9972 160.423 25.228 159.476 25.5476C158.541 25.8554 157.783 26.3229 157.203 26.9503C156.635 27.5658 156.351 28.4062 156.351 29.4716C156.351 30.9276 156.889 32.0284 157.966 32.7741C159.055 33.508 160.434 33.875 162.104 33.875ZM191.911 37.5682C189.638 37.5682 187.632 36.9941 185.892 35.8459C184.152 34.6858 182.79 33.0523 181.808 30.9453C180.825 28.8265 180.334 26.3229 180.334 23.4347C180.334 20.5701 180.825 18.0843 181.808 15.9773C182.79 13.8703 184.158 12.2427 185.909 11.0945C187.661 9.94626 189.685 9.37216 191.982 9.37216C193.757 9.37216 195.16 9.66809 196.19 10.2599C197.232 10.84 198.025 11.5028 198.569 12.2486C199.126 12.9825 199.558 13.5862 199.865 14.0597H200.221V0.636363H204.411V37H200.363V32.8097H199.865C199.558 33.3068 199.12 33.9342 198.551 34.6918C197.983 35.4375 197.172 36.1063 196.119 36.6982C195.065 37.2782 193.663 37.5682 191.911 37.5682ZM192.479 33.804C194.16 33.804 195.58 33.366 196.74 32.4901C197.9 31.6023 198.782 30.3771 199.386 28.8146C199.99 27.2403 200.292 25.4233 200.292 23.3636C200.292 21.3277 199.996 19.5462 199.404 18.0192C198.812 16.4804 197.936 15.2848 196.776 14.4325C195.616 13.5684 194.184 13.1364 192.479 13.1364C190.703 13.1364 189.224 13.5921 188.04 14.5036C186.868 15.4032 185.986 16.6283 185.395 18.179C184.815 19.7178 184.525 21.446 184.525 23.3636C184.525 25.3049 184.82 27.0687 185.412 28.6548C186.016 30.2292 186.904 31.4839 188.076 32.419C189.259 33.3423 190.727 33.804 192.479 33.804ZM212.667 37V9.72727H216.858V37H212.667ZM214.798 5.18182C213.981 5.18182 213.277 4.90365 212.685 4.3473C212.105 3.79096 211.815 3.12216 211.815 2.34091C211.815 1.55966 212.105 0.890861 212.685 0.334516C213.277 -0.221828 213.981 -0.5 214.798 -0.5C215.615 -0.5 216.313 -0.221828 216.893 0.334516C217.485 0.890861 217.781 1.55966 217.781 2.34091C217.781 3.12216 217.485 3.79096 216.893 4.3473C216.313 4.90365 215.615 5.18182 214.798 5.18182Z" fill="black" fill-opacity="0.5"/>
</svg>
